# xmcd
#
# Track frame offsets: 
#        150
#        12972
#        22255
#        37242
#        49277
#        58115
#        66510
#        75430
#        84517
#        95515
#        108480
#        121425
#        132110
#        144427
#        156700
#        163685
#        173335
#        184597
#        194222
#        203715
#        211855
#        225427
#        234112
#        243030
#        264462
#        277500
#        292822
#        302405
#        313655
#        326075
#
# Disc length: 4512 seconds
#
# Revision: 0
# Processed by: cddbd v1.5.2PL0 Copyright (c) Steve Scherf et al.
# Submitted via: ExactAudioCopy v0.95b4
#
DISCID=a0119e1e
DTITLE=Hasil Adkins - Chicken Walk
DYEAR=1995
DGENRE=Rock and Roll
TTITLE0=She Said
TTITLE1=Shake That Thing
TTITLE2=Ugly Women
TTITLE3=Let's Slop Tonight
TTITLE4=Chicken Walk
TTITLE5=She's Mine
TTITLE6=Tell Me Baby
TTITLE7=If You Want To Be My Baby
TTITLE8=Big Fat Mama
TTITLE9=Get Out Of My Car
TTITLE10=Doonie Boogie
TTITLE11=Walk And Talk With Me
TTITLE12=I Need Your Head
TTITLE13=Roll Roll Train
TTITLE14=I Don't Want Nobody The Way I Want You
TTITLE15=I Could Never Be Blue
TTITLE16=I Want Some Lovin'
TTITLE17=Jenny Lu
TTITLE18=Let Me Go
TTITLE19=Rock The Blues
TTITLE20=I Don't Love You
TTITLE21=Rock 'n' Roll Tonight
TTITLE22=Shake With Me
TTITLE23=Miami Kiss
TTITLE24=The Hunch
TTITLE25=Duncens
TTITLE26=No More Hot Dogs
TTITLE27=Truly Ruly
TTITLE28=Is That Right
TTITLE29=Going Back To St. Louis
EXTD=
EXTT0=
EXTT1=
EXTT2=
EXTT3=
EXTT4=
EXTT5=
EXTT6=
EXTT7=
EXTT8=
EXTT9=
EXTT10=
EXTT11=
EXTT12=
EXTT13=
EXTT14=
EXTT15=
EXTT16=
EXTT17=
EXTT18=
EXTT19=
EXTT20=
EXTT21=
EXTT22=
EXTT23=
EXTT24=
EXTT25=
EXTT26=
EXTT27=
EXTT28=
EXTT29=
PLAYORDER=
